# File created by Blade
# Date/Time:  Fri Jan 16 15:45:56 2015
#---------------------------------------------------------
:version 1.10
:name HOM
:units
  mass 1.0
  length 1.000000
  angle deg
:documentation
     Acclaim Skeleton File
:root
   axis xyz
   order TX TY TZ RX RY RZ
   position 0.000000 0.000000 0.000000
   orientation 0 0 0
:bonedata
   begin
      id 1
      name Spine_dum
      direction 0.000000 1.000000 0.000000
      length 7.170412
      axis 0.0 0.0 0.0 xyz
   end
   begin
      id 2
      name LeftUpLeg_dum
      direction 1.000000 0.000000 0.000000
      length 4.318350
      axis 0.0 0.0 0.0 xyz
   end
   begin
      id 3
      name RightUpLeg_dum
      direction -1.000000 0.000000 0.000000
      length 4.318350
      axis 0.0 0.0 0.0 xyz
   end
   begin
      id 4
      name Spine
      direction 0.000000 1.000000 0.000000
      length 0.000000
      axis 0.0 0.0 0.0 xyz
      dof rx ry rz
   end
   begin
      id 5
      name Spine_dum1
      direction 0.000000 1.000000 0.000000
      length 14.276153
      axis 0.0 0.0 0.0 xyz
   end
   begin
      id 6
      name Spine_dum2
      direction 0.000000 1.000000 0.000000
      length 10.718243
      axis 0.0 0.0 0.0 xyz
   end
   begin
      id 7
      name Spine_dum3
      direction 0.000000 1.000000 0.000000
      length 10.718243
      axis 0.0 0.0 0.0 xyz
   end
   begin
      id 8
      name Head
      direction 0.000000 1.000000 0.000000
      length 4.527550
      axis 0.0 0.0 0.0 xyz
      dof rx ry rz
   end
   begin
      id 9
      name LeftShoulder
      direction 1.000000 0.000000 0.000000
      length 7.058872
      axis 0.0 0.0 -90.0 xyz
      dof rx ry rz
   end
   begin
      id 10
      name LeftArm
      direction 1.000000 0.000000 0.000000
      length 10.955525
      axis 0.0 0.0 -90.0 xyz
      dof rx ry rz
   end
   begin
      id 11
      name LeftForeArm
      direction 1.000000 0.000000 0.000000
      length 8.193716
      axis 0.0 0.0 -90.0 xyz
      dof ry rz rx
   end
   begin
      id 12
      name LeftHand
      direction 0.000000 0.000000 0.000000
      length 0.000000
      axis 0.0 0.0 -90.0 xyz
      dof rx ry rz
   end
   begin
      id 13
      name LeftHand_dum1
      direction 0.000000 0.000000 0.000000
      length 0.000000
      axis 0.0 0.0 -90.0 xyz
   end
   begin
      id 14
      name LeftHand_dum2
      direction 1.000000 0.000000 0.000000
      length 3.937000
      axis 0.0 0.0 -90.0 xyz
   end
   begin
      id 15
      name LeftHandThumb1
      direction 0.000000 0.000000 1.000000
      length 3.937000
      axis 0.0 0.0 -90.0 xyz
      dof rx rz ry
   end
   begin
      id 16
      name RightShoulder
      direction -1.000000 0.000000 0.000000
      length 7.058872
      axis 0.0 0.0 90.0 xyz
      dof rx ry rz
   end
   begin
      id 17
      name RightArm
      direction -1.000000 0.000000 0.000000
      length 10.955525
      axis 0.0 0.0 90.0 xyz
      dof rx ry rz
   end
   begin
      id 18
      name RightForeArm
      direction -1.000000 0.000000 0.000000
      length 8.193716
      axis 0.0 0.0 90.0 xyz
      dof ry rz rx
   end
   begin
      id 19
      name RightHand
      direction 0.000000 0.000000 0.000000
      length 0.000000
      axis 0.0 0.0 90.0 xyz
      dof rx ry rz
   end
   begin
      id 20
      name RightHand_dum1
      direction 0.000000 0.000000 0.000000
      length 0.000000
      axis 0.0 0.0 90.0 xyz
   end
   begin
      id 21
      name RightHand_dum2
      direction -1.000000 0.000000 0.000000
      length 3.937000
      axis 0.0 0.0 90.0 xyz
   end
   begin
      id 22
      name RightHandThumb1
      direction 0.000000 0.000000 1.000000
      length 3.937000
      axis 0.0 0.0 90.0 xyz
      dof rx rz ry
   end
   begin
      id 23
      name LeftUpLeg
      direction 0.000000 -1.000000 0.000000
      length 17.323638
      axis 0.0 0.0 0.0 xyz
      dof rx ry rz
   end
   begin
      id 24
      name LeftLeg
      direction 0.000000 -1.000000 0.000000
      length 16.270368
      axis 0.0 0.0 0.0 xyz
      dof rx ry rz
   end
   begin
      id 25
      name LeftFoot
      direction 0.000000 -0.258819 0.965926
      length 4.922846
      axis 15.0 0.0 0.0 xyz
      dof rx ry rz
   end
   begin
      id 26
      name LeftToeBase
      direction 0.000000 0.000000 1.000000
      length 2.952750
      axis 0.0 0.0 0.0 xyz
      dof rx ry rz
   end
   begin
      id 27
      name RightUpLeg
      direction 0.000000 -1.000000 0.000000
      length 17.323638
      axis 0.0 0.0 0.0 xyz
      dof rx ry rz
   end
   begin
      id 28
      name RightLeg
      direction 0.000000 -1.000000 0.000000
      length 16.270368
      axis 0.0 0.0 0.0 xyz
      dof rx ry rz
   end
   begin
      id 29
      name RightFoot
      direction 0.000000 -0.258819 0.965926
      length 4.922846
      axis 15.0 0.0 0.0 xyz
      dof rx ry rz
   end
   begin
      id 30
      name RightToeBase
      direction 0.000000 0.000000 1.000000
      length 2.952750
      axis 0.0 0.0 0.0 xyz
      dof rx ry rz
   end
:hierarchy
   begin
      root Spine_dum LeftUpLeg_dum RightUpLeg_dum
      Spine_dum Spine
      LeftUpLeg_dum LeftUpLeg
      RightUpLeg_dum RightUpLeg
      Spine Spine_dum1 Spine_dum2 Spine_dum3
      Spine_dum1 Head
      Spine_dum2 LeftShoulder
      Spine_dum3 RightShoulder
      LeftShoulder LeftArm
      LeftArm LeftForeArm
      LeftForeArm LeftHand
      LeftHand LeftHand_dum1 LeftHand_dum2
      LeftHand_dum1 LeftHandThumb1
      RightShoulder RightArm
      RightArm RightForeArm
      RightForeArm RightHand
      RightHand RightHand_dum1 RightHand_dum2
      RightHand_dum1 RightHandThumb1
      LeftUpLeg LeftLeg
      LeftLeg LeftFoot
      LeftFoot LeftToeBase
      RightUpLeg RightLeg
      RightLeg RightFoot
      RightFoot RightToeBase
   end

# File created by Blade
# Date/Time:  Fri Jan 16 15:45:48 2015
# Frame Rate: 120.000 fps
#------------------------------------------------------
:FULLY-SPECIFIED
:DEGREES
414
root -5.598419 35.242898 -9.789420 2.697279 -0.621185 -4.769042
Spine -9.150858 2.461568 2.192975
Head 5.822686 -0.607871 -1.722349
LeftShoulder -20.615329 10.319107 -14.135493
LeftArm 19.060404 13.531359 -70.572151
LeftForeArm 16.124205 -0.000000 12.329685
LeftHand 0.970824 -0.000000 -7.553680
LeftHandThumb1 -26.253704 0.000000 33.147579
RightShoulder -20.563163 40.451602 -55.500610
RightArm 46.695814 63.202242 32.179388
RightForeArm -1.642299 -0.000000 79.105270
RightHand -0.296845 -0.000000 -38.935029
RightHandThumb1 -24.326973 -0.000000 -32.862282
LeftUpLeg 6.688264 10.872859 5.625265
LeftLeg -9.626190 -0.000000 0.000000
LeftFoot -14.260978 25.781040 -9.932723
LeftToeBase 21.847554 -0.000000 -0.000000
RightUpLeg 5.171970 -8.305764 1.842588
RightLeg -4.912647 -0.000000 0.000000
RightFoot -5.881558 -26.007503 7.408387
RightToeBase 12.099898 -0.000000 -0.000000
415
root -5.595068 35.242527 -9.793048 2.699076 -0.601651 -4.766567
Spine -9.131480 2.441894 2.206923
Head 5.825463 -0.642049 -1.763733
LeftShoulder -20.599053 10.318281 -14.183752
LeftArm 19.067144 13.462690 -70.525736
LeftForeArm 16.089695 -0.000000 12.310896
LeftHand 1.020248 -0.000000 -7.450973
LeftHandThumb1 -26.253704 0.000000 33.147579
RightShoulder -20.438413 40.453390 -55.444006
RightArm 47.350014 63.828749 32.936645
RightForeArm -1.543546 0.000000 81.638411
RightHand -0.226404 -0.000000 -39.357211
RightHandThumb1 -24.326973 -0.000000 -32.862282
LeftUpLeg 6.679046 10.875906 5.617428
LeftLeg -9.635366 -0.000000 0.000000
LeftFoot -14.269077 25.751224 -9.960552
LeftToeBase 21.866565 -0.000000 -0.000000
RightUpLeg 5.163829 -8.304744 1.837030
RightLeg -4.906975 -0.000000 0.000000
RightFoot -5.878526 -26.021328 7.387082
RightToeBase 12.099337 -0.000000 -0.000000
416
root -5.592977 35.242634 -9.795850 2.699984 -0.584908 -4.764225
Spine -9.109295 2.419406 2.214264
Head 5.816747 -0.698556 -1.801642
LeftShoulder -20.571343 10.302685 -14.219418
LeftArm 19.057045 13.451919 -70.457115
LeftForeArm 15.994883 -0.000000 12.298048
LeftHand 0.983611 -0.000000 -7.443263
LeftHandThumb1 -26.253704 0.000000 33.147579
RightShoulder -20.640409 40.849258 -55.769808
RightArm 47.708794 63.987290 33.678238
RightForeArm -1.658153 -0.000000 84.238407
RightHand 0.178483 -0.000000 -39.105094
RightHandThumb1 -24.326973 -0.000000 -32.862282
LeftUpLeg 6.675432 10.875418 5.611171
LeftLeg -9.646994 -0.000000 0.000000
LeftFoot -14.232498 25.746226 -9.911196
LeftToeBase 21.855814 -0.000000 -0.000000
RightUpLeg 5.155865 -8.324628 1.833327
RightLeg -4.899991 -0.000000 0.000000
RightFoot -5.891057 -26.022782 7.408870
RightToeBase 12.095324 -0.000000 -0.000000
417
root -5.590571 35.242242 -9.798413 2.699084 -0.578217 -4.764834
Spine -9.082955 2.420633 2.228307
Head 5.791702 -0.743077 -1.832017
LeftShoulder -20.546604 10.307904 -14.270333
LeftArm 19.078719 13.375842 -70.402875
LeftForeArm 16.047431 -0.000000 12.279660
LeftHand 1.022777 -0.000000 -7.441433
LeftHandThumb1 -26.253704 0.000000 33.147579
RightShoulder -20.886259 41.233320 -56.170537
RightArm 48.069242 64.159732 34.497692
RightForeArm -1.929819 -0.000000 86.875864
RightHand 0.391841 -0.000000 -38.743188
RightHandThumb1 -24.326973 -0.000000 -32.862282
LeftUpLeg 6.673911 10.895602 5.609843
LeftLeg -9.654907 -0.000000 0.000000
LeftFoot -14.218840 25.717377 -9.888920
LeftToeBase 21.859800 -0.000000 -0.000000
RightUpLeg 5.143357 -8.318370 1.834774
RightLeg -4.883098 -0.000000 0.000000
RightFoot -5.896936 -26.044605 7.390859
RightToeBase 12.137679 -0.000000 -0.000000
418
root -5.588629 35.244711 -9.803437 2.677828 -0.562009 -4.760384
Spine -9.158417 2.415219 2.125517
Head 6.126126 -0.857123 -1.620637
LeftShoulder -20.373824 10.451439 -14.202564
LeftArm 19.069307 13.113262 -70.494013
LeftForeArm 16.199610 -0.000000 12.248416
LeftHand 0.959224 0.000000 -7.345342
LeftHandThumb1 -26.253704 0.000000 33.147579
RightShoulder -14.468205 31.032431 -46.960263
RightArm 69.019125 75.199953 47.957093
RightForeArm -0.794227 -0.000000 86.396046
RightHand 1.144083 -0.000000 -40.011560
RightHandThumb1 -24.326973 -0.000000 -32.862282
LeftUpLeg 6.676437 10.885929 5.607169
LeftLeg -9.641121 -0.000000 0.000000
LeftFoot -14.202505 25.696452 -9.910255
LeftToeBase 21.836606 -0.000000 -0.000000
RightUpLeg 5.147945 -8.327826 1.827117
RightLeg -4.863187 -0.000000 0.000000
RightFoot -5.891593 -26.065249 7.406522
RightToeBase 12.101724 -0.000000 -0.000000
419
root -5.587037 35.244885 -9.806596 2.680887 -0.565806 -4.758013
Spine -9.127635 2.439898 2.122953
Head 6.081482 -0.948335 -1.667565
LeftShoulder -20.330624 10.441887 -14.231915
LeftArm 19.079429 13.109264 -70.423974
LeftForeArm 16.184769 -0.000000 12.236026
LeftHand 0.995004 -0.000000 -7.349910
LeftHandThumb1 -26.253704 0.000000 33.147579
RightShoulder -14.983754 32.008289 -47.716361
RightArm 68.813774 74.625711 48.563163
RightForeArm -1.399422 -0.000000 89.176556
RightHand 0.661722 -0.000000 -40.735504
RightHandThumb1 -24.326973 -0.000000 -32.862282
LeftUpLeg 6.675922 10.889995 5.599825
LeftLeg -9.655359 -0.000000 0.000000
LeftFoot -14.218262 25.684106 -9.967300
LeftToeBase 21.832243 -0.000000 -0.000000
RightUpLeg 5.134180 -8.311921 1.825767
RightLeg -4.853992 -0.000000 0.000000
RightFoot -5.890429 -26.079435 7.389901
RightToeBase 12.121167 -0.000000 -0.000000
420
root -5.584745 35.245570 -9.809879 2.682959 -0.574169 -4.759726
Spine -9.092295 2.462778 2.120909
Head 6.023604 -1.061245 -1.717612
LeftShoulder -20.303778 10.426666 -14.264714
LeftArm 19.097742 13.121378 -70.352876
LeftForeArm 16.176847 -0.000000 12.228304
LeftHand 0.963111 -0.000000 -7.345573
LeftHandThumb1 -26.253704 0.000000 33.147579
RightShoulder -15.554481 33.008811 -48.495174
RightArm 68.728775 74.007860 49.304247
RightForeArm -1.983116 -0.000000 91.889694
RightHand 0.485279 -0.000000 -40.786624
RightHandThumb1 -24.326973 -0.000000 -32.862282
LeftUpLeg 6.669414 10.901713 5.596587
LeftLeg -9.652036 -0.000000 0.000000
LeftFoot -14.205007 25.674807 -9.953606
LeftToeBase 21.831255 -0.000000 -0.000000
RightUpLeg 5.114240 -8.310017 1.824384
RightLeg -4.828720 -0.000000 0.000000
RightFoot -5.906807 -26.060181 7.423401
RightToeBase 12.074025 -0.000000 -0.000000
421
root -5.581656 35.245706 -9.813102 2.691358 -0.590527 -4.761740
Spine -9.068272 2.497488 2.134158
Head 5.947651 -1.092915 -1.744074
LeftShoulder -20.266803 10.421867 -14.305381
LeftArm 19.118169 13.170238 -70.263994
LeftForeArm 16.121227 0.000000 12.218381
LeftHand 0.951617 -0.000000 -7.332076
LeftHandThumb1 -26.253704 0.000000 33.147579
RightShoulder -16.141220 33.977955 -49.337978
RightArm 68.839508 73.428531 50.299192
RightForeArm -2.371638 -0.000000 94.479850
RightHand 1.644274 -0.000000 -39.257922
RightHandThumb1 -24.326973 -0.000000 -32.862282
LeftUpLeg 6.661935 10.932812 5.593157
LeftLeg -9.657812 -0.000000 0.000000
LeftFoot -14.202228 25.658380 -9.956649
LeftToeBase 21.822768 -0.000000 -0.000000
RightUpLeg 5.088164 -8.283481 1.824793
RightLeg -4.809369 -0.000000 0.000000
RightFoot -5.915131 -26.085957 7.407451
RightToeBase 12.115430 -0.000000 -0.000000
422
root -5.579011 35.246567 -9.816629 2.708746 -0.617589 -4.764870
Spine -9.050438 2.543785 2.136776
Head 5.870072 -1.176675 -1.788897
LeftShoulder -20.245043 10.366687 -14.323433
LeftArm 19.099475 13.218287 -70.195307
LeftForeArm 16.103062 -0.000000 12.207891
LeftHand 0.947284 0.000000 -7.357962
LeftHandThumb1 -26.253704 0.000000 33.147579
RightShoulder -16.769259 34.903694 -50.152783
RightArm 69.064882 72.810087 51.326641
RightForeArm -2.662036 -0.000000 96.957932
RightHand 1.940549 -0.000000 -39.172285
RightHandThumb1 -24.326973 -0.000000 -32.862282
LeftUpLeg 6.647387 10.945198 5.588441
LeftLeg -9.659899 -0.000000 0.000000
LeftFoot -14.188747 25.671677 -9.914782
LeftToeBase 21.872093 -0.000000 -0.000000
RightUpLeg 5.053624 -8.249207 1.827355
RightLeg -4.791673 -0.000000 0.000000
RightFoot -5.902422 -26.091774 7.401339
RightToeBase 12.143145 -0.000000 -0.000000
423
root -5.576157 35.246626 -9.821752 2.751908 -0.639452 -4.756241
Spine -9.058593 2.586765 2.120743
Head 5.772725 -1.268696 -1.819264
LeftShoulder -20.249515 10.303322 -14.331855
LeftArm 19.088485 13.302225 -70.128924
LeftForeArm 16.090031 -0.000000 12.190615
LeftHand 0.923459 0.000000 -7.359204
LeftHandThumb1 -26.253704 0.000000 33.147579
RightShoulder -17.393436 35.769554 -50.922381
RightArm 68.993376 72.225996 51.930331
RightForeArm -3.087618 0.000000 99.342726
RightHand 1.187804 -0.000000 -40.363539
RightHandThumb1 -24.326973 -0.000000 -32.862282
LeftUpLeg 6.596404 10.943875 5.563874
LeftLeg -9.650786 -0.000000 0.000000
LeftFoot -14.193373 25.685024 -9.934127
LeftToeBase 21.825879 -0.000000 -0.000000
RightUpLeg 4.986874 -8.210097 1.822142
RightLeg -4.767553 -0.000000 0.000000
RightFoot -5.904211 -26.104033 7.401224
RightToeBase 12.072482 -0.000000 -0.000000
